# xmcd
#
# Track frame offsets: 
#        150
#        8896
#        13461
#        23196
#        38139
#        54869
#        69365
#        79344
#        88206
#        95851
#        108194
#        120346
#        130764
#        141489
#
# Disc length: 2057 seconds
#
# Revision: 2
# Processed by: cddbd v1.5.2PL0 Copyright (c) Steve Scherf et al.
# Submitted via: ExactAudioCopy v0.99pb5
#
DISCID=ba08070e
DTITLE=Carlos Lyra - Pure Bossa Nova
DYEAR=2005
DGENRE=Bossa-Nova
TTITLE0=Tem Do De Mim
TTITLE1=Voce E Eu
TTITLE2=Influencia Do Jazz
TTITLE3=Sabe Voce
TTITLE4=Minha Namorada
TTITLE5=Coisa Mais Linda
TTITLE6=Maria Ninguem
TTITLE7=Quem Quiser Encontrar O Amor
TTITLE8=Se E Tarde, Me Perdoa
TTITLE9=Primavera
TTITLE10=Maria Moita
TTITLE11=Cancao Que Morre No Ar
TTITLE12=Essa Passou
TTITLE13=Lobo Bobo (Live)
EXTD=YEAR: 2005
EXTT0=
EXTT1=
EXTT2=
EXTT3=
EXTT4=
EXTT5=
EXTT6=
EXTT7=
EXTT8=
EXTT9=
EXTT10=
EXTT11=
EXTT12=
EXTT13=
PLAYORDER=
